<svg xmlns="http://www.w3.org/2000/svg" width="230.321" height="76.652" viewBox="0 0 230.321 76.652">
  <g id="Artboard_20_copy_3_Giro_Logos_UI_Pick" transform="translate(-196.43 -380.28)">
    <g id="Group_32" transform="translate(196.43 380.28)">
      <path id="Path_22"  d="M196.43,518.963l72.2-19.983,35.934,3.552-73.742,21.1" transform="translate(-196.43 -448.544)" fill="#1e88e5"/>
      <circle id="Ellipse_5" cx="13.58" cy="13.58" r="13.58" transform="translate(32.271)" fill="#ffb703"/>
      <path id="Path_23"  d="M212.1,490.423l72.2-19.983,35.934,3.552-73.738,21.1" transform="translate(-205.442 -432.131)" fill="#42a5f5"/>
      <path id="Path_24" d="M226.53,461.653l72.2-19.983,35.934,3.552-73.742,21.1" transform="translate(-213.74 -415.585)" fill="#90caf9"/>
    </g>
    <g id="Group_33" transform="translate(335.165 396.571)">
      <path id="Path_25" d="M553.707,459.657a3.2,3.2,0,0,1,.4,1.666,4.028,4.028,0,0,1-.37,1.9,3.448,3.448,0,0,1-1.16,1.215q-4.544,3.066-6.654,4.542l-3.382,2.269q-2.008,10.931-5.256,17.192t-8.264,6.259a5.967,5.967,0,0,1-4.385-1.666,5.845,5.845,0,0,1-1.691-4.355,14.469,14.469,0,0,1,2.957-8.056q2.957-4.3,11.09-10.589l.319-2.061a6.368,6.368,0,0,1-5.226,2.957,6.411,6.411,0,0,1-5.226-2.375,9.493,9.493,0,0,1-1.955-6.233,17.141,17.141,0,0,1,1.955-8,16.673,16.673,0,0,1,5.2-6.072,11.718,11.718,0,0,1,6.892-2.3,2.051,2.051,0,0,1,1.559.45,3.8,3.8,0,0,1,.659,1.61,11.406,11.406,0,0,1,2.324-.212,3.338,3.338,0,0,1,1.874.4,1.815,1.815,0,0,1,.552,1.559,7.73,7.73,0,0,1-.051,1q-.21,1.638-1.321,8.29c-.14.846-.289,1.768-.45,2.775s-.327,2.069-.5,3.2q4.066-3.168,7.818-5.6a2.408,2.408,0,0,1,1.215-.421,1.215,1.215,0,0,1,1.083.659Zm-21.126,26.752a43.382,43.382,0,0,0,3.2-10.087,30.769,30.769,0,0,0-5.864,6.284,9.461,9.461,0,0,0-1.8,4.912A2.863,2.863,0,0,0,528.46,489a1.217,1.217,0,0,0,1.134.582q1.319,0,2.983-3.17Zm3.722-22.286a9.837,9.837,0,0,0,1.585-4.224l1.691-9.029a6.228,6.228,0,0,0-4.015,1.666,11.345,11.345,0,0,0-2.957,4.253,14.315,14.315,0,0,0-1.109,5.6,3.764,3.764,0,0,0,.659,2.43,2.246,2.246,0,0,0,1.823.79,3.079,3.079,0,0,0,2.324-1.479Z" transform="translate(-522.94 -434.337)" fill="#fff"/>
      <path id="Path_26" d="M588.759,468.648a11.772,11.772,0,0,1-1.559-6.441,39.653,39.653,0,0,1,.608-6.1,56.236,56.236,0,0,1,1.559-6.947,4.511,4.511,0,0,1,1.266-2.324,4.044,4.044,0,0,1,2.537-.633q2.7,0,2.694,1.8a41.657,41.657,0,0,1-1,6.127,45.616,45.616,0,0,0-1.266,7.869,5.6,5.6,0,0,0,.421,2.43,1.467,1.467,0,0,0,1.428.846,3.973,3.973,0,0,0,2.375-1.321,46.771,46.771,0,0,0,3.8-4.173,1.85,1.85,0,0,1,1.428-.739,1.222,1.222,0,0,1,1.083.633,3.285,3.285,0,0,1,.4,1.742,4.871,4.871,0,0,1-1,3.276q-5.226,6.393-9.773,6.391A5.494,5.494,0,0,1,588.759,468.648Z" transform="translate(-559.896 -434.481)" fill="#fff"/>
      <path id="Path_27" d="M594.279,425.826a3.733,3.733,0,0,1-1.109-2.877,3.9,3.9,0,0,1,1.453-3.089,5.37,5.37,0,0,1,3.616-1.241,5.009,5.009,0,0,1,3.17.952,3.226,3.226,0,0,1,1.215,2.694,4.291,4.291,0,0,1-1.372,3.352,5.232,5.232,0,0,1-3.646,1.241,4.692,4.692,0,0,1-3.327-1.028Z" transform="translate(-563.329 -418.62)" fill="#42a5f5"/>
      <path id="Path_28" d="M636.431,446.21a7.715,7.715,0,0,0-3.828,1.215,15.289,15.289,0,0,0-4.253,4.066,30,30,0,0,0-3.9,7.393,37.445,37.445,0,0,1,.527-3.909q.319-1.581.846-3.7a20.145,20.145,0,0,0,.79-3.8,1.089,1.089,0,0,0-.421-1,3.014,3.014,0,0,0-1.479-.263,5.492,5.492,0,0,0-3.038.714,3.97,3.97,0,0,0-1.559,2.243,43.077,43.077,0,0,0-1.95,13.044,20.306,20.306,0,0,0,.816,6.76,2.884,2.884,0,0,0,2.826,2.112,3.037,3.037,0,0,0,2.4-.871,8.311,8.311,0,0,0,1.347-3.352,38.142,38.142,0,0,1,2.057-6.127,24.881,24.881,0,0,1,2.562-4.674c.863-1.181,1.559-1.768,2.086-1.768.387,0,.582.28.582.841,0,.166-.017.433-.047.8,1.355.344,2.957,1.3,4.64.565a3.184,3.184,0,0,0,1.61-1.64,0,0,0,0,1,0,0c.068-.459.183-1.088.34-1.887a26.264,26.264,0,0,0,.476-3.327q0-3.435-3.433-3.433Z" transform="translate(-577.701 -434.487)" fill="#fff"/>
      <path id="Path_29" d="M674.01,468.465a9.677,9.677,0,0,1-3.3-4.092,13.4,13.4,0,0,1-1.109-5.439,16.37,16.37,0,0,1,1.5-7.155,12.159,12.159,0,0,1,4.092-4.912A10.045,10.045,0,0,1,681,445.1a8.877,8.877,0,0,1,5.333,1.559,9.632,9.632,0,0,1,3.327,4.092,13.417,13.417,0,0,1,1.109,5.439,16.082,16.082,0,0,1-1.534,7.155,12.276,12.276,0,0,1-4.147,4.912,10.08,10.08,0,0,1-5.783,1.768A8.833,8.833,0,0,1,674,468.465Zm8.927-6.1a10.7,10.7,0,0,0,1.241-5.7,7.519,7.519,0,0,0-1.058-4.385,3.07,3.07,0,0,0-2.537-1.479,3.658,3.658,0,0,0-3.144,1.929,10.692,10.692,0,0,0-1.241,5.732,7.482,7.482,0,0,0,1.058,4.436,3.176,3.176,0,0,0,2.639,1.428,3.577,3.577,0,0,0,3.038-1.955Z" transform="translate(-607.284 -433.849)" fill="#fff"/>
    </g>
    <text id="_" transform="translate(418.751 401.166)" fill="#fff" font-size="10" font-family="Montserrat-SemiBold, Montserrat" font-weight="600" letter-spacing="0.05em"><tspan x="0" y="0">®</tspan></text>
  </g>
</svg>
